<svg width="375" height="495" viewBox="0 0 375 495" fill="none" xmlns="http://www.w3.org/2000/svg">
<circle cx="187.5" cy="247.5" r="187.5" fill="#FFD5D5"/>
<path d="M159.954 227.364C171.503 204.99 203.497 204.99 215.046 227.364L288.432 369.531C299.083 390.163 284.106 414.75 260.886 414.75H114.114C90.8944 414.75 75.9169 390.163 86.5675 369.531L159.954 227.364Z" fill="#FFFF8D"/>
<path d="M215.375 267.99C203.894 290.4 171.9 290.498 160.282 268.159L86.4606 126.218C75.7468 105.618 90.6489 80.9858 113.868 80.9146L260.64 80.4646C283.859 80.3934 298.912 104.934 288.325 125.599L215.375 267.99Z" fill="#FFFF8D"/>
<path d="M159.951 259.392C171.499 237.011 203.501 237.011 215.049 259.392L262.464 351.285C273.11 371.918 258.132 396.5 234.915 396.5H140.085C116.868 396.5 101.89 371.918 112.536 351.285L159.951 259.392Z" fill="#FA98A8"/>
<path d="M215.315 244.106C203.702 266.428 171.737 266.346 160.239 243.965L108.674 143.586C98.0598 122.926 113.1 98.3617 136.327 98.4213L239.973 98.6872C263.2 98.7467 278.114 123.387 267.394 143.994L215.315 244.106Z" fill="#FA98A8"/>
</svg>
